<?xml version="1.0" standalone="no"?>
<!DOCTYPE svg PUBLIC "-//W3C//DTD SVG 20010904//EN"
 "http://www.w3.org/TR/2001/REC-SVG-20010904/DTD/svg10.dtd">
<svg version="1.0" xmlns="http://www.w3.org/2000/svg"
 width="164.000000pt" height="300.000000pt" viewBox="0 0 164.000000 300.000000"
 preserveAspectRatio="xMidYMid meet">
<metadata>
Created by potrace 1.10, written by Peter Selinger 2001-2011
</metadata>
<g transform="translate(0.000000,300.000000) scale(0.100000,-0.100000)"
fill="#4700ff" stroke="none">
<path d="M418 2863 c-8 -10 -17 -25 -21 -34 -4 -11 -19 -16 -51 -17 -26 0 -58
-8 -73 -17 -22 -15 -25 -15 -20 -2 3 8 -3 23 -13 32 -17 16 -21 16 -50 1 -18
-9 -43 -13 -59 -10 -22 5 -32 1 -45 -17 -22 -32 -20 -54 6 -79 22 -20 55 -19
69 2 4 6 9 7 12 1 7 -11 37 -11 55 1 9 5 21 0 33 -13 25 -27 42 -26 85 3 29
19 42 22 65 16 16 -5 31 -5 34 -1 6 11 72 6 88 -8 8 -6 17 -8 21 -4 4 4 11 1
16 -7 7 -11 12 -11 23 -2 8 7 21 10 29 7 8 -3 25 5 39 17 40 38 17 97 -38 98
-12 0 -25 -4 -28 -10 -10 -16 -40 -11 -69 11 -16 12 -33 18 -45 14 -13 -4 -24
1 -34 15 -13 19 -15 19 -29 3z m22 -64 c0 -46 -2 -50 -22 -47 -25 4 -32 32
-12 49 8 6 14 20 14 30 0 11 5 19 10 19 6 0 10 -23 10 -51z m70 16 c15 -18 7
-29 -27 -40 -19 -5 -23 -2 -23 14 0 12 5 21 10 21 6 0 10 -5 10 -11 0 -5 5 -7
12 -3 9 6 9 9 0 12 -14 4 -16 22 -3 22 5 0 14 -7 21 -15z m-275 -15 c-3 -5
-16 -10 -28 -11 -19 0 -18 -2 6 -11 22 -8 26 -13 16 -24 -6 -8 -22 -14 -36
-14 -30 0 -21 20 10 21 19 0 18 2 -6 11 -22 8 -26 13 -16 24 13 16 64 20 54 4z
m409 4 c23 -9 20 -51 -4 -59 -27 -8 -40 1 -40 29 0 34 12 42 44 30z m-498 -30
c4 -17 1 -31 -9 -41 -14 -14 -17 -14 -31 0 -19 19 -20 33 -3 52 19 22 36 18
43 -11z m220 11 c9 -8 11 -15 5 -15 -6 0 -11 -7 -11 -15 0 -8 -4 -15 -10 -15
-5 0 -10 14 -10 30 0 34 5 37 26 15z m184 6 c0 -5 9 -11 20 -14 14 -3 20 -14
20 -31 0 -14 -4 -26 -10 -26 -5 0 -10 11 -10 25 0 14 -4 25 -10 25 -5 0 -10
-7 -10 -15 0 -8 -4 -15 -10 -15 -5 0 -10 14 -10 30 0 17 5 30 10 30 6 0 10 -4
10 -9z m-222 -36 c4 -32 -14 -52 -35 -39 -23 14 -29 44 -11 55 20 14 43 6 46
-16z m182 5 c0 -5 -7 -10 -15 -10 -8 0 -15 5 -15 10 0 6 7 10 15 10 8 0 15 -4
15 -10z"/>
<path d="M411 2784 c0 -11 3 -14 6 -6 3 7 2 16 -1 19 -3 4 -6 -2 -5 -13z"/>
<path d="M620 2775 c0 -8 5 -15 10 -15 6 0 10 7 10 15 0 8 -4 15 -10 15 -5 0
-10 -7 -10 -15z"/>
<path d="M110 2760 c0 -11 7 -20 15 -20 8 0 15 9 15 20 0 11 -7 20 -15 20 -8
0 -15 -9 -15 -20z"/>
<path d="M290 2750 c0 -11 5 -20 10 -20 6 0 10 9 10 20 0 11 -4 20 -10 20 -5
0 -10 -9 -10 -20z"/>
<path d="M1431 2857 c-6 -8 -9 -17 -6 -21 3 -3 -1 -2 -7 4 -17 14 -45 12 -73
-6 -22 -14 -26 -14 -49 1 -14 10 -26 13 -26 7 0 -5 -16 -10 -35 -10 -40 0 -65
-16 -65 -42 0 -10 -7 -23 -15 -30 -14 -12 -12 -15 12 -31 15 -10 36 -16 46
-13 20 6 71 -22 63 -35 -3 -4 5 -18 18 -30 32 -30 62 -15 72 35 4 20 14 38 23
41 9 2 24 9 34 14 14 8 24 6 36 -5 21 -19 62 -21 79 -4 14 14 16 62 2 87 -6
12 -18 17 -36 15 -14 -1 -23 0 -20 3 8 8 -14 33 -29 33 -7 0 -18 -6 -24 -13z
m39 -11 c0 -3 -4 -8 -10 -11 -5 -3 -10 -1 -10 4 0 6 5 11 10 11 6 0 10 -2 10
-4z m-180 -26 c0 -5 -4 -10 -10 -10 -5 0 -10 5 -10 10 0 6 5 10 10 10 6 0 10
-4 10 -10z m120 -20 c0 -10 3 -26 6 -35 6 -13 1 -16 -21 -13 -16 2 -30 9 -33
17 -3 10 2 11 19 6 17 -4 20 -3 10 3 -7 5 -10 15 -7 21 4 6 3 11 -3 11 -5 0
-11 -6 -14 -12 -2 -7 -8 -10 -12 -6 -4 4 -3 14 4 22 15 18 51 9 51 -14z m-165
0 c-3 -5 -16 -10 -28 -11 -22 0 -22 0 1 -10 13 -5 22 -15 20 -21 -6 -17 -68
-23 -68 -7 0 7 10 9 25 7 14 -3 28 -1 31 3 3 5 -2 9 -10 9 -8 0 -18 5 -21 10
-10 16 4 30 31 30 14 0 22 -4 19 -10z m212 -22 c-3 -7 -5 -2 -5 12 0 14 2 19
5 13 2 -7 2 -19 0 -25z m73 22 c0 -5 -10 -10 -22 -11 l-23 0 23 -10 c31 -12
23 -33 -12 -37 -18 -2 -26 0 -21 7 3 6 16 11 28 12 19 0 18 2 -6 11 -22 8 -26
13 -16 24 13 16 49 19 49 4z m-260 -41 c0 -22 -4 -38 -8 -35 -8 5 -4 76 4 76
2 0 4 -18 4 -41z m70 -29 c0 -56 -3 -70 -15 -70 -23 0 -30 28 -11 49 20 22 20
31 1 31 -8 0 -15 6 -15 14 0 25 12 46 26 46 11 0 14 -17 14 -70z"/>
<path d="M1310 2764 c0 -8 5 -12 10 -9 6 3 10 10 10 16 0 5 -4 9 -10 9 -5 0
-10 -7 -10 -16z"/>
<path d="M1310 2684 c0 -8 5 -12 10 -9 6 3 10 10 10 16 0 5 -4 9 -10 9 -5 0
-10 -7 -10 -16z"/>
<path d="M732 2824 c-29 -20 -28 -45 3 -94 23 -36 27 -38 62 -33 21 3 42 9 47
14 5 4 17 2 27 -4 27 -17 56 14 55 59 -1 45 -26 65 -56 46 -28 -17 -48 -15
-77 8 -31 24 -33 24 -61 4z m48 -64 c0 -60 -11 -64 -28 -10 -16 53 -15 60 8
60 17 0 20 -7 20 -50z m120 30 c0 -5 -8 -11 -17 -11 -17 -1 -17 -2 0 -6 20 -5
23 -23 5 -23 -9 0 -8 -3 2 -10 8 -5 11 -12 7 -16 -15 -15 -40 23 -33 50 6 24
36 38 36 16z m-89 -32 c1 -17 2 -19 6 -5 5 18 33 24 33 7 0 -5 -5 -10 -11 -10
-5 0 -8 -4 -5 -9 9 -14 -20 -21 -33 -8 -14 14 -15 47 -1 47 6 0 11 -10 11 -22z"/>
<path d="M750 2786 c0 -9 5 -16 10 -16 6 0 10 4 10 9 0 6 -4 13 -10 16 -5 3
-10 -1 -10 -9z"/>
<path d="M1066 2821 c-9 -13 -52 -19 -71 -9 -21 12 -45 -7 -45 -37 0 -14 13
-33 35 -50 34 -25 37 -26 60 -11 13 9 31 13 40 10 34 -13 70 61 45 91 -14 16
-56 20 -64 6z m52 -29 c2 -6 -7 -16 -20 -21 -17 -7 -18 -10 -5 -10 21 -1 23
-21 2 -21 -20 0 -36 41 -22 58 12 15 39 12 45 -6z m-87 -15 c15 4 19 0 18 -18
0 -22 -1 -23 -9 -4 -8 19 -9 19 -9 -2 -1 -31 -21 -40 -21 -9 0 28 -9 33 -28
14 -9 -9 -12 -6 -12 16 0 25 1 26 21 13 11 -8 29 -13 40 -10z"/>
<path d="M1088 2783 c7 -3 16 -2 19 1 4 3 -2 6 -13 5 -11 0 -14 -3 -6 -6z"/>
<path d="M812 2647 c-17 -20 -18 -363 -2 -382 12 -14 15 -14 31 1 17 15 19 34
19 189 0 155 -2 174 -19 189 -15 13 -20 14 -29 3z m23 -17 c3 -5 1 -10 -4 -10
-6 0 -11 5 -11 10 0 6 2 10 4 10 3 0 8 -4 11 -10z m5 -190 c0 -95 -4 -161 -10
-165 -7 -4 -10 53 -10 165 0 112 3 169 10 165 6 -4 10 -70 10 -165z"/>
<path d="M976 2645 c-19 -20 -20 -27 -4 -43 9 -9 9 -15 0 -24 -8 -8 -12 -48
-12 -115 0 -100 -1 -103 -19 -91 -16 10 -23 9 -40 -6 -36 -33 -3 -99 38 -77
17 9 21 9 21 -2 0 -8 7 -20 16 -27 12 -11 18 -11 30 2 12 12 15 44 16 157 0
122 -3 145 -18 162 -9 10 -12 19 -7 19 18 0 25 33 10 47 -12 12 -17 12 -31 -2z
m24 -21 c0 -8 -5 -12 -10 -9 -6 4 -8 11 -5 16 9 14 15 11 15 -7z m0 -64 c0 -5
-4 -10 -10 -10 -5 0 -10 5 -10 10 0 6 5 10 10 10 6 0 10 -4 10 -10z m0 -156
c0 -87 -4 -133 -10 -129 -6 4 -10 60 -10 136 0 79 4 129 10 129 6 0 10 -52 10
-136z m-70 -74 c0 -16 -4 -30 -10 -30 -5 0 -10 14 -10 30 0 17 5 30 10 30 6 0
10 -13 10 -30z"/>
<path d="M590 2465 c-15 -18 -17 -172 -2 -187 5 -5 19 -7 31 -3 19 6 21 14 21
94 0 101 -18 135 -50 96z m30 -20 c0 -8 -4 -15 -10 -15 -5 0 -10 7 -10 15 0 8
5 15 10 15 6 0 10 -7 10 -15z m0 -96 c0 -33 -4 -59 -10 -59 -6 0 -10 29 -10
66 0 41 4 63 10 59 6 -3 10 -33 10 -66z"/>
<path d="M682 2368 c-16 -16 -15 -39 3 -62 14 -19 15 -19 35 -1 11 10 20 26
20 35 0 18 -19 40 -35 40 -6 0 -16 -5 -23 -12z m28 -34 c0 -14 -4 -23 -10 -19
-5 3 -10 15 -10 26 0 10 5 19 10 19 6 0 10 -12 10 -26z"/>
<path d="M370 2205 c-8 -11 -43 -77 -45 -85 -1 -3 -9 -22 -18 -43 -13 -30 -14
-43 -5 -62 6 -14 14 -25 18 -25 9 0 23 -40 20 -55 -1 -5 2 -7 6 -3 7 7 119
-159 129 -193 4 -11 10 -19 14 -19 4 0 16 -18 27 -39 24 -49 59 -71 116 -71
23 0 63 -5 87 -11 42 -9 81 -5 81 9 0 4 -46 8 -103 9 l-102 3 -37 41 c-21 22
-38 45 -38 50 0 6 -5 15 -10 22 -6 7 -25 35 -42 62 -18 28 -35 52 -38 55 -3 3
-11 18 -18 33 -6 15 -17 33 -22 40 -42 49 -51 63 -56 84 -4 13 -10 23 -15 23
-5 0 -9 7 -9 15 0 19 16 19 24 0 3 -8 25 -46 49 -83 24 -37 67 -103 95 -147
28 -44 55 -84 59 -90 5 -5 14 -22 20 -37 13 -30 33 -38 33 -13 0 8 -4 15 -9
15 -5 0 -14 15 -22 33 -7 17 -17 35 -22 38 -9 6 -26 34 -49 79 -7 14 -18 29
-25 33 -7 4 -13 12 -13 17 0 8 -35 65 -57 95 -54 70 -64 94 -52 117 7 13 12
26 11 31 -1 4 2 7 7 7 5 0 12 14 16 30 8 37 22 39 31 3 4 -15 12 -33 18 -40
30 -33 34 -41 28 -48 -4 -3 1 -11 11 -16 9 -6 17 -16 17 -24 0 -8 9 -19 20
-25 11 -6 19 -14 19 -18 -3 -20 2 -33 11 -27 6 3 10 2 10 -4 0 -5 -6 -12 -12
-14 -7 -3 -3 -6 10 -6 15 -1 22 -7 22 -21 0 -11 4 -20 8 -20 5 0 14 -16 22
-35 8 -19 17 -35 21 -35 4 0 11 -9 14 -20 3 -11 14 -20 23 -21 11 0 12 -3 5
-6 -18 -7 -16 -23 3 -23 11 0 14 -9 12 -37 -2 -20 -9 -38 -16 -39 -7 -1 -8 0
-2 3 12 6 13 23 2 23 -13 0 -32 -48 -26 -65 8 -20 20 -11 39 28 17 37 21 74
10 100 -6 14 -2 17 18 17 14 0 28 -4 32 -10 4 -6 15 -6 32 1 29 11 30 10 33
-11 5 -33 -1 -69 -12 -82 -18 -20 -38 -56 -38 -69 0 -7 9 0 20 14 11 14 20 29
20 33 0 4 6 15 14 23 18 21 24 97 8 113 -15 15 -16 38 -2 38 6 0 10 5 10 10 0
6 -7 10 -15 10 -8 0 -15 -7 -15 -15 0 -18 -36 -20 -43 -2 -4 9 -6 9 -6 0 -1
-6 4 -15 9 -18 6 -3 10 -14 10 -23 -1 -14 -4 -13 -20 7 -29 34 -25 51 10 51
27 0 30 2 20 19 -12 24 -13 51 -1 51 5 0 11 -10 15 -23 6 -27 43 -47 85 -47
30 0 41 -18 41 -70 0 -23 -1 -22 -19 10 -11 19 -25 34 -32 32 -7 -2 -16 3 -20
10 -7 10 -9 9 -9 -4 0 -10 7 -18 15 -18 12 0 15 -13 15 -59 0 -33 -4 -62 -9
-66 -14 -8 -41 -65 -31 -65 7 0 23 30 20 39 -1 2 5 8 14 13 11 6 16 24 16 60
l0 51 21 -19 c19 -17 21 -18 30 -1 8 14 25 17 94 17 46 0 87 -5 90 -10 4 -6
12 -7 18 -3 7 4 6 0 -2 -10 -8 -10 -9 -17 -3 -17 6 0 14 9 17 20 3 11 13 20
21 20 19 0 19 -83 1 -102 -18 -17 -37 -53 -37 -69 0 -13 27 21 52 66 35 63 19
145 -29 145 -12 0 -24 6 -26 13 -4 9 -6 9 -6 0 -1 -6 4 -15 9 -18 6 -3 10 -14
10 -23 -1 -14 -4 -13 -20 7 -29 34 -25 51 10 51 28 0 30 2 20 21 -6 11 -9 28
-7 37 3 12 8 7 20 -18 9 -19 16 -31 17 -27 0 4 9 3 19 -3 13 -6 17 -17 14 -30
-5 -18 3 -24 27 -22 10 1 -3 -123 -14 -130 -8 -6 -8 -8 1 -8 19 0 27 21 24 69
-2 45 -2 45 18 27 19 -17 21 -17 27 -2 4 11 20 16 53 18 l46 1 -45 6 c-42 6
-45 8 -45 36 0 21 -5 31 -18 33 -10 2 -32 18 -48 34 -16 17 -29 26 -29 19 0
-6 -9 -11 -21 -11 -16 0 -19 4 -14 21 6 18 4 20 -14 14 -21 -6 -30 8 -11 20 6
3 10 19 10 35 0 31 -50 76 -74 67 -8 -3 -19 0 -26 6 -10 10 -12 8 -6 -6 4 -13
2 -17 -6 -15 -22 8 -20 35 2 41 11 3 20 11 19 19 0 10 -2 10 -6 1 -2 -7 -11
-13 -18 -13 -7 0 -20 -12 -30 -26 -13 -20 -22 -24 -41 -20 -14 4 -24 2 -24 -4
0 -5 -5 -10 -11 -10 -5 0 -7 5 -3 11 10 16 -17 29 -32 16 -10 -10 -8 -15 9
-29 l22 -18 -22 0 c-28 0 -20 -37 11 -44 12 -2 9 -4 -9 -3 -29 2 -30 4 -33 53
-3 49 -1 52 24 58 17 5 30 3 34 -4 5 -9 9 -9 14 -1 4 6 2 11 -3 11 -6 0 -11 6
-11 14 0 8 -7 16 -14 19 -11 4 -13 1 -9 -10 5 -13 1 -15 -19 -10 -31 8 -38 -5
-38 -72 0 -56 24 -86 63 -79 13 3 32 -1 41 -8 12 -8 27 -9 46 -4 21 6 32 4 41
-6 13 -16 55 -19 64 -4 3 6 11 10 17 10 7 0 6 -5 -2 -15 -6 -8 -9 -23 -5 -36
4 -12 3 -19 -2 -16 -17 10 -45 -21 -38 -42 5 -16 2 -21 -12 -22 -10 0 -36 -2
-58 -4 -46 -3 -85 9 -85 27 0 23 -17 40 -43 43 -28 3 -69 23 -79 39 -4 6 -1
17 6 26 16 18 21 119 6 121 -5 1 -18 2 -28 3 -10 0 -26 9 -36 19 -14 13 -21
15 -32 6 -18 -15 -36 -2 -29 21 5 15 0 20 -27 24 -48 7 -76 2 -96 -18 -16 -16
-16 -18 4 -34 11 -10 21 -24 22 -32 8 -63 17 -97 31 -107 13 -10 20 -8 38 15
13 15 23 21 23 13 0 -22 32 -41 48 -29 9 8 16 8 23 1 8 -8 7 -13 0 -17 -6 -4
-11 -15 -11 -24 0 -10 -9 -23 -20 -30 -21 -13 -28 -42 -9 -42 17 0 1 -17 -21
-23 -17 -4 -29 7 -64 61 -24 37 -49 78 -56 91 -7 14 -21 34 -31 45 -11 11 -19
26 -19 33 0 7 -4 13 -10 13 -5 0 -10 5 -10 11 0 6 -11 25 -25 43 -14 18 -25
38 -25 43 0 6 -7 13 -15 17 -8 3 -15 10 -15 16 0 7 120 10 363 10 l364 0 11
-25 c6 -14 16 -25 21 -25 5 0 12 -11 15 -24 9 -35 49 -95 64 -96 6 0 12 -8 12
-18 0 -11 9 -29 20 -42 11 -13 20 -29 20 -37 0 -7 8 -13 18 -14 10 0 12 -3 5
-6 -16 -6 8 -33 29 -33 10 0 10 -2 -1 -9 -11 -7 -11 -10 2 -17 9 -5 20 -20 26
-34 7 -18 10 -20 10 -7 1 23 -35 99 -59 124 -10 11 -27 38 -39 61 -11 22 -28
48 -38 58 -10 10 -19 21 -19 26 -1 4 -2 13 -3 19 0 5 -5 7 -11 4 -5 -3 -10 1
-10 9 0 9 -5 16 -11 16 -5 0 -7 4 -4 10 3 5 -10 25 -29 44 l-35 35 -376 -2
c-237 -1 -380 -6 -385 -12z m290 -85 c0 -5 -10 -10 -21 -10 -20 0 -21 -3 -14
-75 4 -47 3 -75 -3 -75 -6 0 -13 32 -17 70 -6 60 -10 70 -26 70 -10 0 -19 5
-19 11 0 7 10 9 25 7 14 -3 25 -1 25 3 0 5 11 9 25 9 14 0 25 -4 25 -10z m10
-24 c0 -2 -7 -9 -15 -16 -13 -11 -14 -10 -9 4 5 14 24 23 24 12z m60 -41 c0
-19 -4 -35 -10 -35 -5 0 -10 -13 -10 -30 0 -16 -4 -30 -10 -30 -13 0 -13 12 0
44 7 20 6 26 -5 26 -7 0 -16 -8 -18 -17 -3 -10 -5 1 -6 25 -1 27 3 41 9 37 6
-4 8 -11 5 -16 -4 -5 1 -9 9 -9 9 0 16 9 16 20 0 11 5 20 10 20 6 0 10 -16 10
-35z m55 -15 c-16 -18 -16 -20 -2 -20 10 0 17 -4 17 -10 0 -5 -7 -10 -15 -10
-8 0 -15 -4 -15 -10 0 -5 7 -10 15 -10 8 0 15 -4 15 -10 0 -5 -11 -10 -25 -10
-23 0 -25 4 -25 44 0 34 4 46 18 49 33 9 35 7 17 -13z m221 -27 c-7 -53 -13
-63 -26 -43 -15 23 -12 40 6 40 12 0 15 7 12 25 -3 14 -1 25 5 25 6 0 7 -18 3
-47z m106 24 c13 -20 9 -55 -8 -71 -17 -18 -64 -22 -64 -6 0 6 10 10 23 10 12
0 27 4 32 8 15 11 14 52 -2 52 -7 0 -13 5 -13 11 0 19 -28 -17 -33 -42 -3 -18
-5 -14 -6 12 0 20 2 39 6 43 10 10 56 -3 65 -17z m-150 -4 c5 -27 -3 -73 -13
-73 -5 0 -9 20 -9 45 0 44 15 63 22 28z m268 -144 c0 -12 -30 -8 -46 6 -9 7
-9 12 -1 17 13 8 47 -8 47 -23z m38 -67 l3 -47 -20 35 c-11 21 -25 34 -35 32
-16 -3 -22 9 -9 21 3 4 18 7 32 7 24 0 26 -4 29 -48z"/>
<path d="M940 2159 c0 -5 5 -7 10 -4 6 3 10 8 10 11 0 2 -4 4 -10 4 -5 0 -10
-5 -10 -11z"/>
<path d="M961 2141 c-7 -5 -9 -11 -5 -14 5 -3 15 1 22 9 14 16 5 18 -17 5z"/>
<path d="M980 2120 c0 -5 5 -10 10 -10 6 0 10 5 10 10 0 6 -4 10 -10 10 -5 0
-10 -4 -10 -10z"/>
<path d="M371 2089 c-1 -8 10 -26 25 -40 18 -17 23 -19 18 -6 -3 9 -10 17 -15
17 -5 0 -14 10 -19 23 -5 14 -9 16 -9 6z"/>
<path d="M968 2093 c7 -3 16 -2 19 1 4 3 -2 6 -13 5 -11 0 -14 -3 -6 -6z"/>
<path d="M436 1990 c10 -16 19 -28 21 -26 6 6 -20 56 -29 56 -5 0 -1 -13 8
-30z"/>
<path d="M476 1925 c9 -14 18 -25 20 -25 2 0 -2 11 -8 25 -6 14 -15 25 -20 25
-5 0 -1 -11 8 -25z"/>
<path d="M510 1886 c0 -8 4 -17 9 -20 5 -4 7 3 4 14 -6 23 -13 26 -13 6z"/>
<path d="M1150 1860 c0 -5 5 -10 10 -10 6 0 10 5 10 10 0 6 -4 10 -10 10 -5 0
-10 -4 -10 -10z"/>
<path d="M550 1821 c0 -6 5 -13 10 -16 6 -4 18 -25 27 -46 19 -47 28 -47 12 1
-12 32 -49 79 -49 61z"/>
<path d="M1376 1741 c-4 -27 -12 -52 -19 -54 -7 -3 -5 -6 6 -6 10 -1 17 6 17
17 0 10 3 22 7 26 11 11 14 54 5 60 -5 3 -12 -16 -16 -43z"/>
<path d="M908 1733 c7 -3 16 -2 19 1 4 3 -2 6 -13 5 -11 0 -14 -3 -6 -6z"/>
<path d="M1182 1660 c-7 -11 -8 -20 -3 -20 9 0 24 30 18 36 -1 2 -8 -6 -15
-16z"/>
<path d="M1340 1650 c0 -5 7 -7 15 -4 8 4 15 8 15 10 0 2 -7 4 -15 4 -8 0 -15
-4 -15 -10z"/>
<path d="M600 1639 c0 -5 5 -7 10 -4 6 3 10 8 10 11 0 2 -4 4 -10 4 -5 0 -10
-5 -10 -11z"/>
<path d="M1151 1616 c-18 -21 -15 -23 39 -15 36 5 39 6 13 7 -17 1 -33 7 -35
13 -2 7 -9 5 -17 -5z"/>
<path d="M1300 1622 c0 -7 -10 -13 -22 -13 -19 -1 -20 -2 -4 -6 20 -5 44 12
33 24 -4 3 -7 1 -7 -5z"/>
<path d="M878 1603 c39 -2 105 -2 145 0 39 1 7 3 -73 3 -80 0 -112 -2 -72 -3z"/>
<path d="M363 1516 c-24 -12 -132 -14 -151 -2 -17 11 -28 1 -51 -47 -26 -53
-26 -72 -2 -96 12 -12 16 -22 9 -29 -15 -15 2 -81 24 -93 11 -6 33 -8 49 -5
24 4 34 0 55 -24 33 -37 60 -35 79 7 18 37 30 40 63 17 19 -13 26 -13 38 -3 8
7 12 19 9 27 -3 8 0 30 7 48 11 30 10 36 -10 57 -21 22 -21 23 -2 35 44 27 9
118 -40 105 -10 -3 -26 0 -37 5 -13 7 -25 7 -40 -2z m-153 -20 c0 -3 -4 -8
-10 -11 -5 -3 -10 -1 -10 4 0 6 5 11 10 11 6 0 10 -2 10 -4z m198 -14 c2 -6
-7 -16 -20 -21 -17 -7 -18 -10 -5 -10 20 -1 23 -21 3 -21 -27 0 -44 48 -23 62
16 11 39 6 45 -10z m-125 -13 c14 -22 2 -49 -22 -49 -26 0 -34 15 -27 46 7 28
32 29 49 3z m37 5 c0 -8 5 -12 10 -9 6 4 10 -8 10 -29 0 -25 -4 -36 -15 -36
-18 0 -20 17 -2 23 9 3 7 9 -5 24 -20 22 -24 43 -8 43 6 0 10 -7 10 -16z m160
6 c0 -5 -6 -10 -14 -10 -8 0 -23 -3 -33 -7 -16 -6 -16 -5 -4 10 15 18 51 23
51 7z m-270 -29 c0 -10 -7 -21 -15 -25 -21 -8 -19 -36 2 -36 13 0 14 -3 6 -11
-9 -9 -16 -8 -27 4 -20 20 -21 47 -1 47 8 0 15 9 15 20 0 11 5 20 10 20 6 0
10 -9 10 -19z m265 -11 c0 -10 -11 -16 -35 -17 l-35 -1 30 8 c17 4 24 8 18 9
-7 0 -13 6 -13 12 0 6 8 9 18 7 9 -2 17 -10 17 -18z m-203 -42 c15 1 30 -3 33
-8 8 -13 45 -13 45 -1 0 17 31 21 56 8 23 -12 24 -15 10 -26 -9 -8 -16 -10
-16 -7 0 4 -9 2 -19 -4 -13 -6 -22 -7 -26 0 -3 5 -12 7 -21 3 -8 -3 -24 3 -34
12 -19 17 -21 17 -38 2 -22 -21 -46 -22 -39 -3 3 7 0 19 -6 26 -10 10 -8 11 8
5 11 -5 32 -8 47 -7z m18 -52 c0 -13 -6 -26 -12 -29 -10 -3 -10 -9 0 -27 11
-18 11 -21 0 -18 -15 5 -22 40 -14 74 8 31 26 31 26 0z m184 0 c8 -13 7 -20
-5 -29 -9 -7 -18 -19 -22 -27 -4 -12 -6 -12 -6 2 -1 9 4 20 9 23 16 10 12 35
-6 35 -8 0 -12 5 -9 11 9 13 26 7 39 -15z m-244 -35 c0 -16 6 -32 13 -34 6 -3
-3 -6 -20 -6 -37 -1 -45 20 -15 39 14 9 12 10 -11 5 -25 -5 -27 -4 -15 9 23
26 48 20 48 -13z m130 -25 c0 -57 -17 -85 -38 -64 -17 17 -15 29 6 44 16 13
16 13 0 14 -11 0 -18 8 -18 20 0 22 16 27 23 8 2 -7 2 -3 0 10 -2 15 2 22 12
22 12 0 15 -12 15 -54z m57 39 c12 -12 13 -19 3 -30 -25 -30 -57 -12 -45 25 8
24 21 25 42 5z m53 -65 c0 -5 -4 -10 -10 -10 -5 0 -10 5 -10 10 0 6 5 10 10
10 6 0 10 -4 10 -10z"/>
<path d="M370 1480 c0 -5 5 -10 10 -10 6 0 10 5 10 10 0 6 -4 10 -10 10 -5 0
-10 -4 -10 -10z"/>
<path d="M250 1450 c0 -11 5 -20 10 -20 6 0 10 9 10 20 0 11 -4 20 -10 20 -5
0 -10 -9 -10 -20z"/>
<path d="M380 1310 c0 -5 7 -10 15 -10 8 0 15 5 15 10 0 6 -7 10 -15 10 -8 0
-15 -4 -15 -10z"/>
<path d="M1133 1469 c-6 -6 -9 -18 -6 -25 3 -8 -2 -25 -11 -39 -21 -33 -20
-57 4 -86 15 -16 20 -33 17 -59 -3 -25 2 -41 16 -57 18 -20 19 -26 8 -47 -17
-31 -11 -58 17 -72 20 -10 21 -13 7 -24 -20 -17 -11 -68 16 -92 15 -13 26 -15
44 -8 17 6 27 5 35 -6 16 -18 49 -18 56 0 3 8 28 16 64 20 32 4 64 13 71 22 6
8 20 12 29 9 18 -6 45 18 37 32 -3 5 2 24 11 42 16 33 15 34 -12 58 -32 27
-46 26 -62 -5 -6 -12 -13 -19 -16 -16 -3 3 -15 -7 -26 -21 -12 -15 -23 -21
-27 -15 -3 5 -15 10 -26 10 -17 0 -19 7 -19 70 l0 70 43 1 c23 1 52 0 64 -1
26 -2 63 32 63 58 0 21 -35 62 -53 62 -7 0 -18 -5 -25 -12 -9 -9 -15 -9 -24 0
-16 16 -38 15 -57 -2 -25 -21 -77 -27 -91 -11 -7 8 -11 15 -9 16 2 0 14 2 26
3 13 2 26 6 30 10 11 11 12 100 1 114 -14 16 -45 15 -51 -2 -4 -9 -14 -12 -26
-9 -12 3 -32 -2 -45 -10 -23 -15 -24 -15 -30 8 -7 27 -25 32 -43 14z m37 -13
c0 -11 -19 -15 -25 -6 -3 5 1 10 9 10 9 0 16 -2 16 -4z m137 -45 c-2 -38 -5
-47 -14 -39 -7 6 -13 25 -13 43 0 19 6 36 13 38 6 3 13 6 14 6 0 1 0 -21 0
-48z m-47 0 c0 -11 3 -26 6 -35 5 -13 -1 -16 -25 -16 -22 0 -31 5 -31 16 0 9
6 14 13 11 8 -3 14 3 14 14 2 21 -13 26 -20 7 -2 -7 -8 -10 -12 -6 -12 12 5
28 31 28 17 0 24 -6 24 -19z m-111 -28 c-11 -20 -11 -27 -1 -30 17 -6 15 -23
-2 -23 -23 0 -31 41 -12 55 9 7 16 18 16 25 0 7 3 10 7 7 3 -4 0 -19 -8 -34z
m77 -43 c14 0 15 -3 6 -12 -9 -9 -17 -6 -37 12 -14 13 -25 28 -25 34 1 6 9 1
19 -11 11 -13 27 -23 37 -23z m194 -46 c0 -13 5 -24 10 -24 6 0 10 -4 10 -10
0 -5 -13 -10 -30 -10 -20 0 -30 5 -30 15 0 8 6 13 13 11 6 -1 8 -1 4 2 -4 2
-3 10 4 18 9 11 8 14 -5 14 -9 0 -16 -5 -16 -11 0 -5 -4 -7 -10 -4 -15 10 12
33 32 27 11 -2 18 -14 18 -28z m76 22 c8 -8 14 -20 14 -26 0 -14 -25 -40 -39
-40 -14 0 -24 36 -16 60 7 24 21 25 41 6z m-296 -16 c0 -21 -25 -90 -32 -90
-5 0 -8 23 -8 50 0 43 3 50 20 50 11 0 20 -5 20 -10z m74 4 c24 -9 19 -21 -11
-32 -18 -7 -22 -11 -10 -11 9 -1 17 -6 17 -12 0 -18 -35 -5 -38 14 -8 38 9 54
42 41z m81 -14 c4 -6 -6 -10 -22 -11 -16 0 -21 -3 -13 -6 8 -3 20 -10 27 -15
17 -14 -4 -34 -33 -33 -38 2 -41 15 -3 16 19 0 27 3 19 6 -20 8 -29 23 -23 40
6 15 39 18 48 3z m-103 -71 c12 -3 15 -8 9 -18 -8 -12 -13 -11 -35 6 -14 11
-23 23 -19 27 3 3 11 2 17 -3 6 -5 19 -10 28 -12z m-32 -69 c0 -47 -2 -50 -25
-50 -20 0 -25 5 -25 25 0 29 16 34 24 8 4 -15 5 -15 4 2 -1 46 3 65 12 65 6 0
10 -22 10 -50z m117 0 c-2 -50 -10 -63 -21 -34 -8 21 -8 69 1 77 15 16 21 4
20 -43z m-47 15 c15 -18 7 -29 -27 -40 -19 -5 -23 -2 -23 15 0 17 4 20 23 16
12 -3 16 -3 10 0 -15 6 -17 24 -4 24 5 0 14 -7 21 -15z m237 -50 c3 -9 -2 -24
-11 -34 -9 -10 -13 -21 -9 -24 3 -4 1 -7 -5 -7 -17 0 -15 30 3 36 21 8 19 32
-2 37 -17 4 -17 5 0 6 10 0 20 -6 24 -14z m-237 -5 c0 -5 -7 -10 -15 -10 -8 0
-15 5 -15 10 0 6 7 10 15 10 8 0 15 -4 15 -10z m-30 -30 c13 -9 13 -10 0 -10
-8 0 -22 5 -30 10 -13 9 -13 10 0 10 8 0 22 -5 30 -10z m65 0 c3 -5 2 -10 -4
-10 -5 0 -13 5 -16 10 -3 6 -2 10 4 10 5 0 13 -4 16 -10z m137 -30 c-3 -31 -8
-40 -23 -40 -24 0 -24 24 -1 55 24 34 28 31 24 -15z m-161 -7 c1 -16 1 -37 1
-48 -1 -17 0 -17 4 -2 7 23 24 22 24 -3 0 -21 -8 -24 -34 -14 -11 4 -16 19
-16 50 0 47 19 62 21 17z m91 -5 c-1 -16 2 -28 8 -28 5 0 10 -4 10 -10 0 -5
-13 -10 -30 -10 -21 0 -30 5 -30 16 0 9 6 14 13 11 8 -3 13 3 13 14 0 11 -6
19 -13 19 -7 0 -13 -5 -13 -12 0 -6 -2 -9 -5 -6 -13 12 9 39 29 36 16 -2 20
-9 18 -30z m-148 -13 c-4 -15 -2 -25 5 -25 6 0 11 -4 11 -10 0 -5 -13 -10 -30
-10 -20 0 -30 5 -30 15 0 18 17 20 23 3 2 -7 4 -1 4 15 1 29 -6 34 -25 15 -7
-7 -12 -8 -12 -2 0 17 11 24 37 24 20 0 22 -4 17 -25z m276 5 c0 -5 -4 -10
-10 -10 -5 0 -10 5 -10 10 0 6 5 10 10 10 6 0 10 -4 10 -10z"/>
<path d="M1460 1290 c0 -11 7 -20 15 -20 8 0 15 9 15 20 0 11 -7 20 -15 20 -8
0 -15 -9 -15 -20z"/>
<path d="M1176 1285 c-3 -8 -1 -15 4 -15 6 0 10 7 10 15 0 8 -2 15 -4 15 -2 0
-6 -7 -10 -15z"/>
<path d="M1245 1290 c-3 -5 1 -10 10 -10 9 0 13 5 10 10 -3 6 -8 10 -10 10 -2
0 -7 -4 -10 -10z"/>
<path d="M1435 1041 c-3 -5 -1 -12 5 -16 5 -3 10 1 10 9 0 18 -6 21 -15 7z"/>
<path d="M953 1374 c9 -9 68 -11 73 -2 3 4 -14 8 -37 8 -23 0 -40 -3 -36 -6z"/>
<path d="M602 1363 c-32 -6 -75 -67 -67 -93 4 -12 2 -27 -4 -34 -8 -9 -8 -29
0 -70 11 -54 11 -58 -12 -82 -20 -21 -24 -36 -25 -102 -2 -67 1 -80 23 -108
21 -28 24 -41 22 -107 -2 -72 -3 -75 -28 -80 -14 -3 -39 -3 -56 0 -45 7 -85
-27 -80 -68 3 -17 0 -40 -6 -51 -8 -15 -8 -27 2 -44 10 -20 10 -29 -1 -48 -7
-15 -10 -36 -6 -53 4 -15 8 -50 10 -76 4 -64 32 -100 82 -109 70 -12 179 -9
199 6 17 12 22 12 39 0 24 -17 97 -19 113 -3 8 8 17 8 31 0 29 -15 85 -14 108
3 16 12 21 12 34 1 29 -26 213 -20 248 8 15 12 35 58 46 102 5 23 4 27 -5 15
-8 -12 -9 -10 -4 10 16 61 17 73 5 96 -10 18 -11 29 -2 46 12 25 10 76 -3 98
-5 8 -4 15 3 18 6 2 3 12 -10 27 -17 19 -30 24 -72 23 -96 -1 -156 5 -166 17
-6 7 -9 44 -6 84 l4 71 -28 0 -27 0 1 -82 1 -83 -40 -2 c-135 -6 -172 -6 -182
0 -5 3 -11 37 -12 75 -2 58 2 73 23 105 16 24 25 50 24 70 -1 18 0 37 1 42 10
32 -2 77 -25 100 -25 25 -26 29 -16 84 6 32 7 72 2 91 -4 19 -8 29 -9 22 -1
-7 -6 -10 -11 -7 -7 5 -8 11 -1 19 6 8 3 19 -11 36 -11 14 -17 19 -13 13 4
-10 -6 -12 -44 -8 -31 3 -51 1 -51 -5 0 -13 37 -21 75 -17 l30 4 3 -99 c2 -83
0 -98 -13 -98 -9 0 -18 -7 -21 -15 -4 -8 -18 -15 -34 -15 -15 0 -33 7 -40 15
-7 8 -19 15 -26 15 -10 0 -14 13 -14 40 0 22 -4 40 -10 40 -5 0 -10 7 -10 15
0 8 5 15 10 15 6 0 10 20 10 45 0 44 1 45 23 34 20 -11 21 -11 9 4 -21 25 -6
37 46 37 34 0 43 3 32 10 -15 10 -28 11 -68 3z m128 -138 c0 -8 -4 -15 -10
-15 -5 0 -10 7 -10 15 0 8 5 15 10 15 6 0 10 -7 10 -15z m-136 -130 c8 -22 72
-20 85 2 5 10 13 14 17 10 4 -4 -1 -14 -12 -21 -10 -8 -16 -18 -11 -22 4 -4
13 1 21 11 12 17 16 18 36 4 21 -14 23 -22 21 -93 -2 -72 -15 -116 -33 -116
-5 0 -8 7 -8 15 0 8 3 15 8 15 4 0 7 32 8 70 l1 70 -36 10 c-20 5 -46 10 -58
10 -20 0 -63 31 -63 45 0 12 18 4 24 -10z m-16 -17 c18 -18 15 -25 -12 -32
-22 -5 -42 -42 -26 -48 4 -2 10 -31 13 -66 5 -62 5 -63 -14 -46 -27 24 -28
178 -1 193 22 13 26 13 40 -1z m12 -48 c7 11 9 6 9 -20 -1 -19 -3 -27 -6 -17
-2 9 -8 17 -13 17 -5 0 -11 -8 -13 -17 -3 -10 -5 -2 -6 17 0 26 2 31 9 20 9
-13 11 -13 20 0z m80 -2 c0 -7 -13 -13 -30 -14 -29 -1 -37 6 -23 19 11 12 53
7 53 -5z m30 -3 c0 -8 -4 -15 -10 -15 -5 0 -10 7 -10 15 0 8 5 15 10 15 6 0
10 -7 10 -15z m-60 -30 c0 -8 -7 -15 -16 -15 -14 0 -14 3 -4 15 7 8 14 15 16
15 2 0 4 -7 4 -15z m54 -1 c29 -29 16 -127 -15 -109 -9 6 -8 10 7 15 10 4 -14
5 -53 2 l-73 -5 0 36 c0 36 1 37 38 35 72 -2 108 2 93 11 -8 5 -21 6 -30 3
-14 -5 -14 -3 -2 11 16 21 16 21 35 1z m-5 -124 c25 -7 39 -15 33 -19 -6 -3
-12 -33 -14 -66 -2 -48 -7 -60 -20 -63 -15 -3 -18 5 -18 51 0 63 -16 85 -49
67 -18 -9 -21 -20 -21 -78 0 -61 -2 -68 -20 -69 -11 -1 -20 2 -20 8 0 5 7 9
16 9 8 0 12 5 9 10 -4 6 -10 8 -15 5 -12 -7 -17 135 -5 145 14 11 47 18 65 14
8 -1 35 -8 59 -14z m311 -104 c0 -42 4 -66 13 -69 6 -3 1 -6 -13 -6 -25 -1
-25 0 -22 69 4 88 22 92 22 6z m-363 -43 c-2 -21 -4 -6 -4 32 0 39 2 55 4 38
2 -18 2 -50 0 -70z m73 -23 c0 -5 -9 -10 -20 -10 -11 0 -20 5 -20 10 0 6 9 10
20 10 11 0 20 -4 20 -10z m-236 -46 c12 -31 7 -64 -10 -64 -12 0 -15 7 -12 25
3 14 4 25 2 25 -1 0 -8 2 -16 5 -9 4 -14 -3 -16 -19 -1 -13 5 -26 13 -30 20
-7 19 -26 0 -26 -27 0 -43 23 -34 47 6 16 5 23 -4 23 -6 0 -3 7 7 15 26 20 62
19 70 -1z m91 2 c10 -10 11 -16 2 -25 -7 -7 -8 -14 -1 -21 6 -6 9 -23 6 -39
-3 -24 -8 -28 -33 -27 -16 1 -29 4 -29 9 0 12 -28 8 -33 -5 -2 -7 -8 -10 -12
-5 -5 4 -1 13 9 20 9 7 18 28 19 47 1 19 6 41 10 48 11 16 45 15 62 -2z m78 2
c3 -10 9 -10 27 0 19 12 24 12 32 0 7 -10 11 -10 15 0 2 6 16 12 29 12 20 0
24 -5 24 -30 0 -34 -15 -40 -23 -10 -3 11 -10 20 -17 20 -7 0 -9 -8 -5 -20 5
-14 2 -20 -9 -20 -9 0 -16 9 -16 20 0 22 -15 27 -26 9 -3 -6 -19 -9 -35 -5
-41 8 -37 -12 6 -30 31 -12 35 -19 35 -49 0 -19 5 -35 10 -35 6 0 10 18 10 40
0 38 1 39 31 35 17 -2 34 -7 37 -10 9 -9 -19 -24 -35 -18 -18 7 -17 -34 1 -52
12 -12 15 -12 20 0 3 8 11 15 19 15 10 0 13 15 10 66 -2 41 0 63 6 60 5 -4 12
-2 16 4 10 16 43 11 48 -7 3 -10 6 -39 6 -64 1 -39 -2 -48 -19 -52 -23 -6 -27
-27 -5 -27 8 0 15 -4 15 -10 0 -19 -32 -10 -37 10 -7 25 -14 25 -44 -1 -17
-15 -32 -19 -53 -15 -17 4 -32 10 -36 15 -3 5 -20 12 -37 16 -18 3 -33 11 -33
16 0 6 -5 7 -11 3 -7 -4 -10 -1 -7 7 8 23 39 23 45 0 7 -27 23 -27 23 -1 0 11
-4 20 -10 20 -5 0 -10 7 -10 15 0 8 -9 15 -19 15 -28 0 -36 18 -20 46 13 26
35 32 42 12z m251 -4 c3 -9 6 -25 6 -36 0 -17 -3 -18 -14 -8 -8 6 -12 18 -9
26 3 8 0 14 -6 14 -6 0 -11 5 -11 10 0 16 27 11 34 -6z m64 -27 c-4 -28 -28
-34 -28 -8 0 12 -5 21 -11 21 -8 0 -8 5 1 15 17 20 42 1 38 -28z m42 13 c0
-20 -5 -30 -15 -30 -10 0 -15 10 -15 30 0 20 5 30 15 30 10 0 15 -10 15 -30z
m34 14 c10 -27 7 -44 -9 -44 -10 0 -15 10 -15 30 0 32 14 40 24 14z m50 0 c9
-24 7 -44 -4 -44 -5 0 -10 6 -10 14 0 8 -5 16 -12 18 -6 2 -8 10 -4 16 10 17
23 15 30 -4z m42 -1 c12 -17 14 -17 28 2 15 20 15 20 29 0 15 -19 12 -45 -4
-45 -5 0 -12 6 -15 14 -6 16 -34 10 -46 -8 -4 -6 -8 -1 -8 12 0 12 -4 22 -10
22 -5 0 -10 5 -10 10 0 16 22 12 36 -7z m105 -11 c-28 -4 -40 6 -21 18 9 6 20
4 29 -3 12 -10 11 -13 -8 -15z m9 -26 c0 -8 4 -16 10 -18 5 -2 6 -9 1 -17 -8
-12 -11 -12 -23 0 -8 7 -13 21 -10 31 5 21 22 24 22 4z m-43 -39 c-7 -21 -32
-13 -35 11 -3 21 -1 22 18 12 12 -6 19 -17 17 -23z m-194 -9 c3 -18 1 -37 -3
-42 -15 -15 -30 5 -30 40 0 45 26 46 33 2z m40 12 c3 -11 10 -20 16 -20 6 0
11 9 11 20 0 11 5 20 10 20 20 0 9 -37 -15 -50 -29 -15 -55 -1 -55 31 0 25 26
24 33 -1z m91 5 c-4 -8 -1 -15 6 -15 10 0 10 -4 0 -15 -11 -13 -15 -13 -21 -3
-14 21 -10 48 6 48 9 0 12 -6 9 -15z m-234 -29 c0 -18 7 -39 15 -46 13 -11 15
-6 15 34 0 34 4 46 15 46 11 0 15 -12 15 -44 0 -39 -3 -45 -26 -50 -14 -4 -35
-4 -45 -1 -17 6 -19 13 -15 48 5 51 4 47 16 47 6 0 10 -15 10 -34z m-470 -17
c3 -5 43 -9 88 -10 78 -2 82 -4 77 -23 -3 -12 -2 -15 1 -8 8 16 29 15 70 -4
46 -22 43 -32 -8 -28 -24 1 -59 4 -80 5 -46 4 -68 -15 -68 -56 0 -37 -23 -62
-66 -71 -36 -7 -68 19 -38 30 16 6 15 8 -4 22 -12 8 -22 25 -22 36 0 22 26 58
42 58 14 0 9 -28 -7 -34 -20 -7 -19 -42 1 -50 8 -3 26 -3 40 0 37 10 28 -9
-14 -27 -31 -14 -34 -17 -18 -24 10 -4 21 -4 25 2 3 5 14 12 24 16 12 4 17 17
17 42 0 26 7 43 26 60 27 25 25 29 -8 26 -10 -1 -18 3 -18 10 0 7 -3 9 -6 6
-4 -4 -2 -13 4 -20 19 -22 -49 -6 -81 19 -33 27 -36 48 -4 38 12 -4 24 -10 27
-15z m830 11 c0 -21 -45 -54 -82 -60 -32 -6 -36 -5 -27 7 7 7 9 16 5 20 -3 3
-6 1 -6 -6 0 -8 -7 -10 -20 -6 -11 4 -20 2 -20 -4 0 -6 9 -20 20 -31 12 -12
20 -33 20 -55 0 -25 5 -38 18 -42 9 -4 20 -11 23 -16 4 -6 13 -6 24 1 16 8 13
11 -18 23 -41 14 -51 35 -13 25 51 -13 73 19 39 56 -22 25 -8 36 17 13 26 -24
25 -60 -2 -79 -19 -14 -20 -16 -4 -22 30 -11 -2 -37 -38 -30 -43 9 -66 34 -66
71 0 28 -29 72 -41 61 -8 -9 -149 -14 -149 -6 0 5 14 14 30 22 17 7 30 16 30
20 0 14 31 8 36 -7 4 -8 11 -15 17 -15 7 0 7 4 -1 12 -21 21 -13 25 69 27 53
1 89 7 102 16 25 17 37 19 37 5z m-450 -70 c0 -5 -12 -10 -27 -9 l-28 1 25 8
c14 4 26 8 28 9 1 1 2 -3 2 -9z m-330 -4 c0 -2 -7 -6 -15 -10 -8 -3 -15 -1
-15 4 0 6 7 10 15 10 8 0 15 -2 15 -4z m403 -3 c-7 -2 -19 -2 -25 0 -7 3 -2 5
12 5 14 0 19 -2 13 -5z m307 -3 c0 -5 -7 -7 -15 -4 -8 4 -15 8 -15 10 0 2 7 4
15 4 8 0 15 -4 15 -10z m-715 -31 c9 -13 6 -16 -28 -24 -18 -5 -27 -3 -27 5 0
7 7 10 15 6 9 -3 15 0 15 9 0 17 16 20 25 4z m645 -26 c0 -37 23 -73 47 -73 7
0 13 -4 13 -10 0 -13 -13 -13 -27 1 -12 12 -33 4 -33 -13 0 -5 7 -8 15 -4 8 3
15 1 15 -4 0 -5 -13 -8 -30 -7 -35 2 -40 21 -7 32 22 8 22 8 -3 12 -14 3 -29
9 -34 14 -14 13 -503 12 -511 -1 -3 -5 -16 -10 -28 -10 -12 0 -31 -7 -41 -15
-23 -17 -36 -19 -36 -5 0 6 7 10 15 10 8 0 15 4 15 9 0 5 9 13 20 16 16 5 20
15 20 46 l0 39 295 0 295 0 0 -37z m86 14 c8 3 14 0 14 -7 0 -8 -9 -10 -27 -5
-36 9 -41 14 -23 25 10 7 16 5 18 -5 2 -8 10 -11 18 -8z m-557 -83 c2 -2 -14
-4 -37 -4 -23 0 -42 4 -42 9 0 9 69 4 79 -5z m421 6 c0 -5 -20 -10 -45 -10
-39 0 -44 -2 -33 -14 7 -8 16 -12 20 -10 4 2 9 0 12 -5 3 -5 26 -12 51 -15 25
-4 45 -11 45 -17 0 -5 9 -9 20 -9 11 0 20 -6 20 -13 0 -11 -11 -11 -62 -1 -76
16 -99 18 -80 5 11 -7 11 -9 -2 -14 -9 -4 -17 1 -21 14 -4 10 -11 17 -16 14
-5 -3 -6 0 -4 8 7 18 -29 50 -51 45 -15 -3 -16 -5 -3 -18 22 -24 21 -44 -6
-56 -20 -10 -25 -9 -30 5 -6 14 -7 14 -16 -2 -9 -15 -12 -16 -25 -2 -19 19
-29 19 -47 1 -12 -12 -16 -12 -31 6 -14 16 -15 22 -6 28 7 4 9 13 6 19 -5 8
-12 6 -23 -5 -12 -11 -13 -18 -4 -27 22 -22 13 -36 -14 -24 -26 13 -29 33 -6
57 13 13 12 15 -3 18 -20 4 -58 -26 -53 -42 5 -15 -26 -43 -41 -38 -11 4 -11
6 0 13 19 13 -4 11 -79 -5 -52 -10 -63 -10 -63 1 0 7 9 13 20 13 11 0 20 4 20
9 0 4 27 14 60 20 33 7 60 16 60 20 0 27 114 42 139 19 11 -10 12 -10 7 -1 -5
8 -2 11 7 7 18 -6 17 -52 0 -59 -7 -2 -13 -10 -13 -16 0 -7 8 -5 20 6 19 17
21 17 40 0 12 -11 20 -13 20 -6 0 6 -6 14 -12 16 -18 7 -19 53 -1 59 9 4 12 2
7 -7 -6 -9 -5 -9 7 0 9 7 47 12 98 11 45 0 85 3 88 6 10 9 23 7 23 -4z m-634
-20 c23 0 16 -18 -8 -23 -14 -3 -9 -5 15 -6 36 -1 54 -21 20 -21 -15 0 -16 -2
-3 -10 12 -8 12 -10 -5 -10 -28 0 -44 12 -48 35 -1 11 -7 26 -11 34 -7 11 -5
13 8 8 10 -4 24 -7 32 -7z m114 -14 c0 -6 -14 -12 -30 -13 -17 -1 -30 2 -30 7
0 5 8 6 17 3 12 -5 15 -2 10 9 -4 12 -1 14 14 11 10 -3 19 -10 19 -17z m693
12 c-4 -7 -9 -22 -10 -33 -4 -23 -20 -35 -48 -35 -17 0 -17 2 -5 10 13 8 12
10 -2 10 -35 0 -17 20 20 21 23 1 28 3 15 6 -42 8 -29 22 30 32 5 0 5 -5 0
-11z"/>
<path d="M520 647 c0 -10 8 -17 18 -17 9 0 13 4 7 8 -5 4 -13 11 -17 16 -5 5
-8 2 -8 -7z"/>
<path d="M510 601 c0 -12 28 -46 33 -41 2 3 7 14 11 25 5 16 1 20 -19 21 -14
1 -25 -1 -25 -5z"/>
<path d="M810 630 c0 -16 -4 -30 -8 -30 -4 0 -8 -9 -8 -19 0 -11 4 -17 9 -14
5 3 13 -1 18 -8 6 -10 10 -7 17 11 6 16 6 27 -1 31 -5 4 -8 13 -5 21 3 7 -1
19 -8 26 -12 11 -14 8 -14 -18z"/>
<path d="M623 483 c9 -2 23 -2 30 0 6 3 -1 5 -18 5 -16 0 -22 -2 -12 -5z"/>
<path d="M993 483 c9 -2 23 -2 30 0 6 3 -1 5 -18 5 -16 0 -22 -2 -12 -5z"/>
<path d="M875 310 c-3 -6 0 -17 9 -25 9 -10 17 -11 21 -5 3 6 0 17 -9 25 -9
10 -17 11 -21 5z"/>
<path d="M1040 1364 c0 -3 11 -19 25 -36 14 -16 25 -23 25 -16 0 8 -11 24 -25
36 -14 12 -25 19 -25 16z"/>
<path d="M912 1343 c-22 -20 -46 -83 -31 -83 5 0 9 9 9 19 0 11 12 33 26 50
29 34 27 40 -4 14z"/>
<path d="M990 1335 c0 -16 26 -55 39 -58 10 -3 7 -5 -8 -6 -16 -1 -21 -6 -18
-15 4 -10 1 -13 -9 -9 -7 3 -14 9 -14 14 0 5 -9 9 -20 9 -11 0 -20 -7 -20 -15
0 -8 -6 -15 -14 -15 -15 0 -17 -55 -3 -77 4 -7 5 -26 2 -42 -4 -24 -1 -34 15
-43 22 -14 27 -33 7 -25 -11 4 -14 -12 -14 -78 0 -66 3 -82 14 -78 7 3 13 1
13 -5 0 -6 -6 -12 -12 -15 -7 -3 -3 -4 10 -4 20 1 22 5 17 27 -4 14 -7 52 -7
85 1 85 1 87 11 81 5 -3 24 0 42 8 28 12 34 20 36 48 1 18 5 52 9 76 6 41 5
42 -21 42 -23 0 -26 2 -15 15 7 8 17 12 22 9 6 -4 5 2 -1 14 -6 12 -7 22 -2
24 5 2 3 12 -6 23 -13 16 -15 17 -10 3 8 -22 -11 -24 -19 -3 -6 13 -24 22 -24
10z m33 -103 c28 -4 32 -17 21 -59 -4 -13 -11 -20 -16 -17 -6 4 -14 0 -19 -7
-7 -12 -9 -12 -9 0 0 11 -3 11 -15 1 -10 -8 -15 -9 -15 -2 0 6 -6 9 -14 6 -8
-3 -16 4 -20 18 -12 46 -7 58 22 58 22 0 24 2 12 11 -12 9 -11 9 5 4 11 -5 32
-10 48 -13z m-53 -112 c0 -14 37 -13 42 2 2 6 10 9 17 7 8 -3 4 -14 -15 -34
-17 -19 -29 -25 -32 -17 -2 7 -9 9 -15 5 -7 -3 -9 -2 -4 2 4 5 0 17 -10 27
-15 17 -15 18 0 18 10 0 17 -4 17 -10z m-10 -90 c0 -5 -4 -10 -10 -10 -5 0
-10 5 -10 10 0 6 5 10 10 10 6 0 10 -4 10 -10z m0 -30 c0 -5 -4 -10 -10 -10
-5 0 -10 5 -10 10 0 6 5 10 10 10 6 0 10 -4 10 -10z m0 -50 c0 -5 -4 -10 -10
-10 -5 0 -10 5 -10 10 0 6 5 10 10 10 6 0 10 -4 10 -10z m0 -30 c0 -5 -4 -10
-10 -10 -5 0 -10 5 -10 10 0 6 5 10 10 10 6 0 10 -4 10 -10z"/>
<path d="M968 1204 c-10 -10 3 -34 18 -34 20 0 17 18 -3 23 -14 4 -13 5 4 6
12 0 24 -4 26 -9 3 -6 4 -5 3 2 -3 14 -38 23 -48 12z"/>
<path d="M937 1294 c-31 -36 -30 -41 6 -21 26 14 37 27 37 45 0 20 -13 13 -43
-24z"/>
<path d="M920 1310 c-9 -6 -10 -10 -3 -10 6 0 15 5 18 10 8 12 4 12 -15 0z"/>
<path d="M1097 1276 c-3 -8 0 -17 7 -19 10 -4 12 1 9 14 -6 23 -9 24 -16 5z"/>
<path d="M651 1243 c-8 -9 -11 -26 -7 -43 4 -22 1 -30 -12 -34 -9 -3 -5 -4 11
-2 15 2 27 -1 27 -5 0 -11 -41 -11 -58 0 -11 7 -11 9 2 14 11 4 16 17 14 37
-2 26 -6 30 -33 29 -16 0 -24 -3 -17 -6 6 -2 12 -11 12 -19 0 -8 6 -11 15 -8
19 8 19 -3 0 -22 -11 -12 -12 -20 -5 -35 13 -23 65 -26 74 -4 6 17 -2 45 -14
45 -5 0 -7 8 -5 18 2 9 4 19 4 22 1 3 6 -2 11 -10 8 -12 10 -11 10 7 0 28 -11
35 -29 16z"/>
<path d="M867 1239 c7 -7 15 -10 18 -7 3 3 -2 9 -12 12 -14 6 -15 5 -6 -5z"/>
<path d="M1080 1236 c0 -2 9 -6 20 -9 11 -3 18 -1 14 4 -5 9 -34 13 -34 5z"/>
<path d="M885 1180 c-3 -5 -1 -10 4 -10 6 0 11 5 11 10 0 6 -2 10 -4 10 -3 0
-8 -4 -11 -10z"/>
<path d="M1080 1180 c0 -6 7 -10 15 -10 8 0 15 2 15 4 0 2 -7 6 -15 10 -8 3
-15 1 -15 -4z"/>
<path d="M872 1137 c-20 -21 -22 -33 -22 -153 1 -132 6 -153 43 -167 19 -7 21
-56 5 -89 -10 -21 6 -25 19 -5 12 18 12 139 1 160 -7 13 -17 18 -34 14 l-24
-4 0 109 c0 106 1 110 28 133 15 13 22 25 16 25 -6 0 -20 -10 -32 -23z m28
-265 c0 -10 5 -23 12 -30 9 -9 8 -12 -5 -12 -9 0 -17 7 -17 15 0 8 -4 15 -10
15 -5 0 -10 7 -10 15 0 8 7 15 15 15 8 0 15 -8 15 -18z"/>
<path d="M1088 1141 c20 -17 22 -29 24 -123 l2 -103 3 100 c4 104 -6 145 -36
145 -12 -1 -11 -5 7 -19z"/>
<path d="M1050 974 c0 -47 4 -73 10 -69 6 3 10 37 10 76 0 39 -4 69 -10 69 -6
0 -10 -32 -10 -76z"/>
<path d="M997 895 c3 -8 9 -12 14 -9 12 7 11 11 -5 17 -10 4 -13 1 -9 -8z"/>
<path d="M1083 890 c-3 -11 -12 -20 -20 -20 -11 0 -13 -4 -5 -12 10 -14 10
-53 -1 -64 -4 -4 -2 -13 4 -21 9 -9 8 -13 0 -13 -6 0 -11 -4 -11 -10 0 -5 7
-10 15 -10 8 0 15 -6 15 -14 0 -7 10 -16 21 -19 l21 -6 -21 23 c-26 28 -30
129 -5 164 10 14 11 22 4 22 -7 0 -14 -9 -17 -20z"/>
</g>
</svg>
